{"title":"Me.Before.You.2016.HC.HDRip.500MB","uid":15182243,"size":520129459,"categoryP":"video","categoryS":"movies","magnet":"?xt=urn:btih:f34526e45cf50a623374d0a0bbc8c3c96f6b5d87&amp;dn=Me.Before.You.2016.HC.HDRip.500MB&amp;tr=udp%3A%2F%2Ftracker.leechers-paradise.org%3A6969&amp;tr=udp%3A%2F%2Fzer0day.ch%3A1337&amp;tr=udp%3A%2F%2Fopen.demonii.com%3A1337&amp;tr=udp%3A%2F%2Ftracker.coppersurfer.tk%3A6969&amp;tr=udp%3A%2F%2Fexodus.desync.com%3A6969","seeders":26,"leechers":11,"uploader":"PurePowerPunk","files":9,"time":1467465308,"description":"Cropped and Compressed\r\n \nhttps://postimg.org/gallery/22qethllu/9ca93570/\r\n\r\n^^^^^^^^^^^^Screens^^^^^^^^^\r\n\r\nFormat                    : MPEG-4\r\nFormat profile            : Base Media / Version 2\r\nCodec ID                  : mp42\r\nFile size                 : 495 MiB\r\nDuration                  : 1h 50mn\r\nOverall bit rate mode     : Variable\r\nOverall bit rate          : 628 Kbps\r\n\r\n\r\nVideo\r\n-----\r\nID                        : 1\r\nFormat                    : AVC\r\nFormat/Info               : Advanced Video Codec\r\nFormat profile            :   \r\nFormat settings, CABAC    : Yes\r\nFormat settings, ReFrames : 3 frames\r\nFormat settings, GOP      : M=3, N=33\r\nCodec ID                  : avc1\r\nCodec ID/Info             : Advanced Video Coding\r\nDuration                  : 1h 50mn\r\nSource duration           : 1h 50mn\r\nBit rate                  : 494 Kbps\r\nWidth                     : 720 pixels\r\nHeight                    : 320 pixels\r\nDisplay aspect ratio      : 2.25:1\r\nFrame rate mode           : Variable\r\nFrame rate                : 30.000 fps\r\nMinimum frame rate        : 30.000 fps\r\nMaximum frame rate        : 30.030 fps\r\nStandard                  : NTSC\r\nColor space               : YUV\r\nChroma subsampling        : 4:2:0\r\nBit depth                 : 8 bits\r\nScan type                 : Progressive\r\nBits/(Pixel*Frame)        : 0.071\r\nStream size               : 389 MiB (79%)\r\nSource stream size        : 389 MiB (79%)\r\nLanguage                  : English\r\nEncoded date              : UTC 2016-07-02 10:55:10\r\nTagged date               : UTC 2016-07-02 10:55:10\r\nmdhd_Duration             : 6609434\r\nColor primaries           : BT.601 NTSC\r\nTransfer characteristics  : BT.601\r\nMatrix coefficients       : BT.601\r\n\r\nAudio\r\n-----\r\nID                        : 2\r\nFormat                    : AAC\r\nFormat/Info               : Advanced Audio Codec\r\nFormat profile            : LC\r\nCodec ID                  : 40\r\nDuration                  : 1h 50mn\r\nSource duration           : 1h 50mn\r\nBit rate mode             : Variable\r\nBit rate                  : 125 Kbps\r\nMaximum bit rate          : 214 Kbps\r\nChannel count             : 2 channels\r\nChannel positions         : Front: L R\r\nSampling rate             : 48.0 KHz\r\nCompression mode          : Lossy\r\nStream size               : 98.8 MiB (20%)\r\nSource stream size        : 98.8 MiB (20%)\r\nLanguage                  : English","torrent":{"xt":"urn:btih:f34526e45cf50a623374d0a0bbc8c3c96f6b5d87","amp;dn":"Me.Before.You.2016.HC.HDRip.500MB","amp;tr":["udp%3A%2F%2Ftracker.leechers-paradise.org%3A6969","udp%3A%2F%2Fzer0day.ch%3A1337","udp%3A%2F%2Fopen.demonii.com%3A1337","udp%3A%2F%2Ftracker.coppersurfer.tk%3A6969","udp%3A%2F%2Fexodus.desync.com%3A6969"],"infoHash":"f34526e45cf50a623374d0a0bbc8c3c96f6b5d87","infoHashBuffer":{"type":"Buffer","data":[243,69,38,228,92,245,10,98,51,116,208,160,187,200,195,201,111,107,93,135]},"announce":[],"urlList":[]}}